<svg xmlns="http://www.w3.org/2000/svg" viewBox="0 0 100 100" width="100" height="100">
  <rect width="100" height="100" fill="#e8f4fc" rx="10"/>
  <rect x="42" y="10" width="16" height="10" fill="#1a3a5c" rx="2"/>
  <rect x="40" y="18" width="20" height="8" fill="#4a90c2"/>
  <path d="M38 26 Q35 35 35 45 L35 85 Q35 90 40 90 L60 90 Q65 90 65 85 L65 45 Q65 35 62 26 Z" fill="#4a90c2"/>
  <path d="M40 30 Q38 38 38 48 L38 82 Q38 85 42 85 L58 85 Q62 85 62 82 L62 48 Q62 38 60 30 Z" fill="#1a3a5c" opacity="0.3"/>
  <ellipse cx="50" cy="60" rx="8" ry="15" fill="#fff" opacity="0.3"/>
</svg>

